<svg width="890" height="200" viewBox="0 0 890 200" fill="none" xmlns="http://www.w3.org/2000/svg">
<path d="M324 16H360.299C380.764 16 395.703 20.4085 405.114 29.2255C414.674 37.893 419.454 49.8483 419.454 65.0913C419.454 82.7253 414.3 96.2497 403.993 105.664C393.686 115.079 378.374 119.787 358.059 119.787H349.32V180.758H324V16ZM358.731 97.5946C371.876 97.5946 381.063 94.6805 386.292 88.8523C391.52 83.0242 394.134 76.0004 394.134 67.7812C394.134 58.9642 391.595 51.791 386.516 46.2617C381.437 40.7325 372.922 37.9678 360.972 37.9678H349.32V97.5946H358.731ZM440.578 77.8685H464.778V98.043C467.168 91.1687 471.052 85.6393 476.43 81.455C481.807 77.2707 487.931 75.1785 494.803 75.1785C499.583 75.1785 502.87 75.6269 504.663 76.5235L501.301 100.957C499.957 100.06 497.044 99.6121 492.563 99.6121C485.541 99.6121 479.118 101.854 473.293 106.337C467.616 110.82 464.778 117.993 464.778 127.856V180.758H440.578V77.8685ZM569.727 183C559.121 183 549.71 180.609 541.494 175.827C533.277 171.044 526.93 164.544 522.448 156.325C517.967 148.106 515.726 138.989 515.726 128.977C515.726 119.114 517.892 110.073 522.224 101.854C526.705 93.6345 533.053 87.1338 541.27 82.3517C549.486 77.5695 558.972 75.1785 569.727 75.1785C580.482 75.1785 589.893 77.5695 597.96 82.3517C606.175 87.1338 612.449 93.6345 616.782 101.854C621.263 110.073 623.504 119.114 623.504 128.977C623.504 138.989 621.263 148.106 616.782 156.325C612.3 164.544 605.951 171.044 597.736 175.827C589.669 180.609 580.332 183 569.727 183ZM570.399 163.274C579.063 163.274 585.86 160.06 590.79 153.635C595.868 147.209 598.408 139.14 598.408 129.425C598.408 119.712 595.719 111.567 590.341 104.992C584.964 98.2671 577.867 94.9047 569.055 94.9047C560.54 94.9047 553.668 98.1924 548.44 104.768C543.361 111.343 540.822 119.562 540.822 129.425C540.822 138.989 543.585 147.059 549.113 153.635C554.639 160.06 561.734 163.274 570.399 163.274ZM658.31 97.5946H640.16V77.8685H658.31V35.9503L682.734 30.5705V77.8685H706.485V97.5946H682.734V180.758H658.31V97.5946ZM771.639 183C762.377 183 753.788 180.833 745.871 176.499C738.103 172.016 731.829 165.74 727.049 157.67C722.418 149.451 720.103 139.886 720.103 128.977C720.103 118.217 722.12 108.803 726.153 100.733C730.335 92.6631 736.236 86.3866 743.854 81.9034C751.473 77.4201 760.436 75.1785 770.743 75.1785C776.718 75.1785 782.32 76.2246 787.548 78.3168C792.776 80.409 797.183 83.0242 800.768 86.1624C804.354 89.1513 806.743 92.14 807.939 95.1289L808.387 77.8685H831.466V180.758H808.611L808.163 162.601C805.623 167.981 800.992 172.764 794.27 176.948C787.548 180.983 780.004 183 771.639 183ZM775.672 162.826C784.187 162.826 791.357 159.911 797.183 154.083C803.009 148.106 805.922 140.334 805.922 130.77V129.201C805.922 122.775 804.578 117.022 801.889 111.941C799.2 106.86 795.54 102.9 790.909 100.06C786.278 97.2211 781.199 95.8013 775.672 95.8013C766.111 95.8013 758.717 98.9396 753.49 105.216C748.261 111.343 745.647 119.338 745.647 129.201C745.647 139.214 748.186 147.358 753.265 153.635C758.493 159.762 765.962 162.826 775.672 162.826ZM866.024 16H890V180.758H866.024V16Z" fill="#075581"/>
<path opacity="0.75" d="M114.91 92.6854C123.369 88.8546 137.074 88.8767 145.52 92.7342L244.932 138.136C253.378 141.994 253.368 148.226 244.909 152.057L145.354 197.141C136.895 200.972 123.19 200.95 114.743 197.092L15.3317 151.69C6.88502 147.833 6.89497 141.6 15.3539 137.77L114.91 92.6854Z" fill="#71ADCE"/>
<path opacity="0.75" d="M114.937 49.8107C123.396 45.98 137.101 46.002 145.547 49.8595L244.959 95.2616C253.405 99.1191 253.395 105.352 244.937 109.182L145.381 154.267C136.921 158.097 123.217 158.075 114.77 154.218L15.3587 108.816C6.91208 104.958 6.92203 98.7256 15.381 94.8948L114.937 49.8107Z" fill="#257CAC"/>
<path opacity="0.75" d="M247.188 53.4344L143.188 5.93716C136.009 2.65816 124.36 2.63956 117.17 5.89561L13.0188 53.0605C5.82873 56.3166 5.82029 61.6143 13 64.8933L117 112.391C124.179 115.67 135.828 115.688 143.018 112.432L247.169 65.2672C254.359 62.0111 254.368 56.7134 247.188 53.4344Z" fill="#075581"/>
</svg>
